<svg width="76" height="73" viewBox="0 0 76 73" fill="none" xmlns="http://www.w3.org/2000/svg">
<path d="M66.2197 53C64.0384 53 62.2838 51.1819 60.9561 47.5456C59.652 43.9094 59 39.1068 59 33.1379V20.1709C59 16.1916 59.2964 12.6926 59.8891 9.67379C60.4819 6.58641 61.3236 4.21941 62.4142 2.57281C63.5049 0.857599 64.7615 0 66.1841 0H69.0293C71.0683 0 72.7043 1.71521 73.9372 5.14563C75.1938 8.50745 75.8222 12.967 75.8222 18.5243H71.8033C71.8033 16.0544 71.5425 14.0647 71.0209 12.5553C70.523 10.9773 69.8591 10.1883 69.0293 10.1883H66.2197C65.295 10.1883 64.5363 11.1832 63.9435 13.1728C63.3745 15.1625 63.09 17.7353 63.09 20.8913V32.4175C63.09 35.5049 63.3745 38.0091 63.9435 39.9301C64.5363 41.8511 65.3068 42.8116 66.2552 42.8116H69.0648C69.9421 42.8116 70.6415 41.8854 71.1632 40.033C71.7085 38.1806 71.9812 35.7793 71.9812 32.8291H76C76 38.8667 75.3598 43.7379 74.0795 47.4427C72.8229 51.1476 71.1513 53 69.0648 53H66.2197Z" fill="#6BFF95"/>
<path d="M40 0.82051H43.6503V7.48718C44.1507 5.23077 44.8102 3.4188 45.629 2.05128C46.4478 0.683756 47.2665 0 48.0853 0H50.2004C51.9517 0 53.3504 1.67522 54.3966 5.02564C55.4655 8.37607 56 12.7863 56 18.2564V52H52.0768V18.5641C52.0768 16.1026 51.8607 14.1197 51.4286 12.6154C51.0192 11.0427 50.4734 10.2564 49.7911 10.2564H47.6759C46.7889 10.2564 45.9929 11.282 45.2879 13.3333C44.5828 15.3162 44.1279 17.8803 43.9233 21.0256V52H40V0.82051Z" fill="#6BFF95"/>
<path d="M25.4754 73C23.7395 73 22.3005 71.5641 21.1585 68.6923C20.0393 65.8205 19.4226 62.0256 19.3084 57.3077H23.1799C23.2484 59.0171 23.4882 60.3846 23.8994 61.4103C24.3105 62.4359 24.8358 62.9487 25.4754 62.9487H28.2505C29.1185 62.9487 29.8037 61.9573 30.3062 59.9744C30.8315 58.0598 31.0942 55.4615 31.0942 52.1795V44.5898C30.546 46.8462 29.9065 48.6239 29.1756 49.9231C28.4675 51.2222 27.748 51.8718 27.0171 51.8718H24.7902C23.0543 51.8718 21.6495 50.1624 20.576 46.7436C19.5253 43.2564 19 38.6752 19 33V1H22.94V33.2051C22.94 35.8034 23.1456 37.8889 23.5567 39.4615C23.9907 41.0342 24.5617 41.8205 25.2698 41.8205H27.2912C28.1363 41.8205 28.9129 40.7607 29.621 38.641C30.3519 36.5214 30.843 33.8205 31.0942 30.5385V1H35V52.1795C35 58.5385 34.3833 63.5983 33.1499 67.359C31.9393 71.1197 30.3062 73 28.2505 73H25.4754Z" fill="#6BFF95"/>
<path d="M6.52361 53C4.55508 53 2.97568 51.422 1.78541 48.266C0.595137 45.11 0 40.9249 0 35.7107H3.87983C3.87983 37.9061 4.12017 39.69 4.60086 41.0621C5.08154 42.3657 5.72246 43.0175 6.52361 43.0175H9.5794C10.3577 43.0175 10.9642 42.6401 11.3991 41.8854C11.8569 41.0621 12.0858 39.9644 12.0858 38.5922V36.3282C12.0858 35.3676 11.9485 34.5443 11.6738 33.8583C11.422 33.1722 11.0672 32.6919 10.6094 32.4175L4.66953 29.3301C3.34192 28.644 2.289 27.2032 1.51074 25.0078C0.732485 22.7437 0.343346 20.1366 0.343346 17.1864V13.7903C0.343346 9.53656 0.904157 6.17476 2.02576 3.70486C3.17025 1.23495 4.73821 0 6.72962 0H9.47639C11.2847 0 12.7496 1.47508 13.8712 4.42524C14.9928 7.37541 15.5537 11.2518 15.5537 16.0544H11.6738C11.6738 14.2019 11.4678 12.7269 11.0558 11.6291C10.6667 10.5314 10.1402 9.98252 9.47639 9.98252H6.76396C5.96281 9.98252 5.34478 10.3599 4.90987 11.1146C4.47496 11.8692 4.25751 12.9327 4.25751 14.3048V16.3631C4.25751 17.3236 4.38341 18.1469 4.6352 18.833C4.90988 19.5191 5.26466 19.9651 5.69957 20.1709L11.8455 23.4641C13.1044 24.2188 14.1116 25.6595 14.867 27.7864C15.6223 29.9133 16 32.4175 16 35.299V39.1068C16 43.3605 15.4163 46.7566 14.2489 49.2951C13.0816 51.765 11.525 53 9.5794 53H6.52361Z" fill="#6BFF95"/>
</svg>
